<svg width="20" height="20" viewBox="0 0 20 20" fill="none" xmlns="http://www.w3.org/2000/svg">
<g clip-path="url(#clip0_343_26)">
<path d="M0 10C0 4.47715 4.47715 0 10 0C15.5228 0 20 4.47715 20 10C20 15.5228 15.5228 20 10 20C4.47715 20 0 15.5228 0 10Z" fill="#E8EEF2"/>
<rect width="6.25" height="20" fill="#006845"/>
<rect x="14.0245" width="6.25" height="20" fill="#FE313D"/>
<path d="M11.0755 10.3296L10.2754 10.7597V11.1897H10.6755L11.0755 10.3296Z" fill="#FFD250"/>
<path d="M10.2772 12.2648C10.1666 12.2648 10.0771 12.1686 10.0771 12.0498V11.1897C10.0771 11.0708 10.1666 10.9746 10.2772 10.9746C10.3877 10.9746 10.4772 11.0708 10.4772 11.1897V12.0498C10.4772 12.1686 10.3877 12.2648 10.2772 12.2648Z" fill="#00C3A0"/>
<path d="M10.2764 11.4048C9.49073 11.4048 8.73205 11.0789 8.14001 10.4871C8.05913 10.4063 8.05445 10.2702 8.12971 10.1833C8.20548 10.0966 8.33192 10.092 8.41238 10.1721C8.93022 10.6898 9.59226 10.9747 10.2765 10.9747C10.9608 10.9747 11.6228 10.6898 12.1407 10.1721C12.2214 10.0917 12.3477 10.0961 12.4233 10.1833C12.4985 10.2702 12.4938 10.4063 12.413 10.4871C11.8208 11.0789 11.0621 11.4048 10.2764 11.4048Z" fill="#00C3A0"/>
<path d="M10.2755 12.2649C9.76267 12.2649 9.26596 12.1038 8.83893 11.7989L9.06043 11.4407C9.78243 11.9564 10.7685 11.9564 11.4905 11.4407L11.712 11.7989C11.285 12.1038 10.7883 12.2649 10.2755 12.2649Z" fill="#00AADC"/>
<path d="M9.95906 9.36206L9.51737 10.0968L9.44232 10.3387L10.5925 10.052L9.95906 9.36206Z" fill="#732D37"/>
<path d="M9.04964 10.5751C8.52087 10.5751 7.88615 10.0968 7.71777 9.03088L8.11238 8.95908C8.25228 9.84544 8.75961 10.1457 9.0641 10.1449C9.15748 10.1421 9.25491 10.1075 9.26258 10.0365C9.27157 9.95169 9.27372 9.93158 9.06452 9.85555C8.95079 9.81414 8.82188 9.76736 8.73144 9.65608C8.36553 9.20691 8.86093 8.73153 9.09894 8.50308C9.14093 8.46275 9.15832 8.42851 9.15385 8.41552C9.14077 8.37874 9.06226 8.32316 8.97376 8.32316C8.71962 8.32316 8.52681 8.16882 8.47079 7.9206C8.41256 7.66356 8.52255 7.39268 8.73197 7.27637L8.91564 7.65853C8.86655 7.68582 8.84711 7.76349 8.85956 7.81897C8.86445 7.84123 8.87638 7.89309 8.97386 7.89309C9.21881 7.89309 9.45187 8.04849 9.52765 8.26226C9.56008 8.35338 9.6089 8.59025 9.36553 8.82395C9.10277 9.07619 8.94554 9.266 9.03267 9.37288C9.05238 9.397 9.13698 9.42791 9.19285 9.44807C9.37294 9.5136 9.70817 9.6354 9.66014 10.0858C9.63003 10.3691 9.39486 10.5656 9.07529 10.5749C9.06662 10.5749 9.058 10.5751 9.04964 10.5751Z" fill="#AAD264"/>
<path d="M10.6755 8.17937C10.6755 8.17937 11.0755 7.31929 10.2754 6.88922C10.2754 6.88922 13.0758 6.45915 12.6757 10.3297L12.6756 10.3296C12.413 10.1038 12.0232 9.69109 11.884 9.36208L10.6755 8.60944V8.17937Z" fill="#874150"/>
<path d="M10.2754 9.03955L12.2757 10.3297C12.2757 10.3297 12.2757 10.3297 11.4756 10.7598L10.2754 9.46962V9.03955Z" fill="#732D37"/>
<path d="M9.47559 7.74929C9.69651 7.74929 9.87566 7.94187 9.87566 8.17936L9.87524 8.17987C9.63655 8.43646 9.57743 8.82834 9.72836 9.15288L9.81875 9.34727C9.85643 9.42828 9.90604 9.50228 9.96563 9.56635L11.0758 10.7598V10.1655C11.0758 9.42506 10.9155 8.69479 10.6075 8.03254C10.4041 7.59547 9.98855 7.31934 9.53397 7.31934H9.47559V7.74929Z" fill="#783C46"/>
<path d="M9.47344 7.31909L9.07336 7.74916V8.17923C9.07336 8.17923 9.54927 7.91988 9.70966 7.83723C9.82175 7.7795 9.80136 7.64296 9.73703 7.57714C9.68695 7.52596 9.47344 7.31909 9.47344 7.31909Z" fill="#FFD250"/>
<path d="M10.2755 13.1252C8.40041 13.1252 6.875 11.4854 6.875 9.46973H7.27507C7.27507 11.2484 8.62097 12.6952 10.2756 12.6952C11.9301 12.6952 13.276 11.2484 13.276 9.46973H13.6761C13.676 11.4854 12.1506 13.1252 10.2755 13.1252Z" fill="#AAD264"/>
<path d="M7.2959 11.0375C7.44584 11.0375 7.56738 10.9069 7.56738 10.7457C7.56738 10.5845 7.44584 10.4539 7.2959 10.4539C7.14596 10.4539 7.02441 10.5845 7.02441 10.7457C7.02441 10.9069 7.14596 11.0375 7.2959 11.0375Z" fill="#FFE15A"/>
<path d="M7.89658 12.068C8.04651 12.068 8.16806 11.9374 8.16806 11.7762C8.16806 11.615 8.04651 11.4844 7.89658 11.4844C7.74664 11.4844 7.62509 11.615 7.62509 11.7762C7.62509 11.9374 7.74664 12.068 7.89658 12.068Z" fill="#FFE15A"/>
<path d="M8.86914 12.8469C9.01908 12.8469 9.14063 12.7162 9.14063 12.555C9.14063 12.3938 9.01908 12.2632 8.86914 12.2632C8.7192 12.2632 8.59766 12.3938 8.59766 12.555C8.59766 12.7162 8.7192 12.8469 8.86914 12.8469Z" fill="#FFE15A"/>
<path d="M13.2803 11.0375C13.4302 11.0375 13.5518 10.9069 13.5518 10.7457C13.5518 10.5845 13.4302 10.4539 13.2803 10.4539C13.1303 10.4539 13.0088 10.5845 13.0088 10.7457C13.0088 10.9069 13.1303 11.0375 13.2803 11.0375Z" fill="#FFE15A"/>
<path d="M12.6836 12.068C12.8335 12.068 12.9551 11.9374 12.9551 11.7762C12.9551 11.615 12.8335 11.4844 12.6836 11.4844C12.5337 11.4844 12.4121 11.615 12.4121 11.7762C12.4121 11.9374 12.5337 12.068 12.6836 12.068Z" fill="#FFE15A"/>
<path d="M11.707 12.8473C11.857 12.8473 11.9785 12.7167 11.9785 12.5555C11.9785 12.3943 11.857 12.2637 11.707 12.2637C11.5571 12.2637 11.4355 12.3943 11.4355 12.5555C11.4355 12.7167 11.5571 12.8473 11.707 12.8473Z" fill="#FFE15A"/>
<path d="M10.4757 12.4798H10.0756C9.85471 12.4798 9.67557 12.2872 9.67557 12.0497C9.67557 11.8122 9.85471 11.6196 10.0756 11.6196H10.4757C10.6966 11.6196 10.8758 11.8122 10.8758 12.0497C10.8758 12.2872 10.6967 12.4798 10.4757 12.4798Z" fill="#FFB478"/>
<path d="M11.884 9.36197C12.0174 9.78305 12.3007 10.1683 12.6756 10.3294L12.6757 10.3296C13.0758 6.45915 10.2754 6.88922 10.2754 6.88922C12.2757 6.88922 11.884 9.36197 11.884 9.36197Z" fill="#9B4B5A"/>
</g>
<defs>
<clipPath id="clip0_343_26">
<path d="M0 10C0 4.47715 4.47715 0 10 0C15.5228 0 20 4.47715 20 10C20 15.5228 15.5228 20 10 20C4.47715 20 0 15.5228 0 10Z" fill="white"/>
</clipPath>
</defs>
</svg>
