<svg width="18" height="18" viewBox="0 0 18 18" fill="none" xmlns="http://www.w3.org/2000/svg">
    <path d="M9 16.5a7.35 7.35 0 0 1-2.944-.59 7.575 7.575 0 0 1-2.381-1.604A7.52 7.52 0 0 1 1.5 8.962c0-1.05.194-2.028.581-2.934a7.473 7.473 0 0 1 1.594-2.372 7.32 7.32 0 0 1 2.381-1.584A7.558 7.558 0 0 1 9 1.5c1.05 0 2.031.19 2.944.572a7.32 7.32 0 0 1 2.38 1.584 7.473 7.473 0 0 1 1.595 2.372c.387.906.58 1.885.58 2.935a7.52 7.52 0 0 1-2.174 5.343 7.574 7.574 0 0 1-2.381 1.603A7.35 7.35 0 0 1 9 16.5zm2.962-10.313h2.813a6.075 6.075 0 0 0-1.697-2.156 6.466 6.466 0 0 0-2.484-1.218c.312.462.578.962.797 1.5a12.2 12.2 0 0 1 .571 1.875zm-4.762 0h3.637a7.313 7.313 0 0 0-.693-1.921A7.67 7.67 0 0 0 9 2.625c-.4.337-.738.781-1.013 1.331-.275.55-.537 1.294-.787 2.232zM2.85 10.67H5.83c-.037-.338-.06-.64-.065-.91-.007-.268-.01-.534-.01-.796 0-.313.006-.591.019-.835.012-.244.037-.516.075-.816h-3c-.088.3-.147.57-.178.807a6.57 6.57 0 0 0-.047.844c0 .325.016.615.047.871.031.257.09.535.178.835zm4.556 4.518A8.964 8.964 0 0 1 6.6 13.65a11.232 11.232 0 0 1-.563-1.856H3.225c.475.887 1.025 1.584 1.65 2.09.625.507 1.469.941 2.531 1.303zm-4.181-9h2.831c.138-.675.313-1.278.525-1.809a8.902 8.902 0 0 1 .806-1.547 6.358 6.358 0 0 0-2.456 1.2c-.7.563-1.269 1.282-1.706 2.157zM9 15.414a6.24 6.24 0 0 0 1.097-1.547c.294-.582.534-1.272.722-2.072h-3.62c.176.75.41 1.425.704 2.025.294.6.66 1.131 1.097 1.593zm-2.006-4.744h4.03c.05-.388.082-.703.095-.947a14.84 14.84 0 0 0 0-1.481c-.013-.232-.044-.541-.094-.928H6.994c-.05.387-.082.696-.094.928a14.84 14.84 0 0 0 0 1.481c.012.244.044.56.094.947zm3.618 4.5c.9-.288 1.71-.719 2.429-1.294a6.716 6.716 0 0 0 1.734-2.081H11.98a13.576 13.576 0 0 1-.572 1.837 8.508 8.508 0 0 1-.797 1.538zm1.538-4.5h3c.087-.3.147-.578.178-.835.031-.256.047-.546.047-.871 0-.325-.016-.607-.047-.844a5.475 5.475 0 0 0-.178-.806h-2.981c.037.437.062.771.075 1.003.012.23.018.446.018.646 0 .276-.009.535-.028.779a41.87 41.87 0 0 1-.084.928z" fill="#E8EEF2"/>
</svg>
